<?xml version="1.0" encoding="utf-8"?>
<!-- Generated by IcoMoon.io -->
<!DOCTYPE svg PUBLIC "-//W3C//DTD SVG 1.1//EN" "http://www.w3.org/Graphics/SVG/1.1/DTD/svg11.dtd">
<svg version="1.1" xmlns="http://www.w3.org/2000/svg" xmlns:xlink="http://www.w3.org/1999/xlink" width="32" height="32" viewBox="0 0 32 32">
<path fill="#808b9a" d="M25.143 32h-18.286c-3.787 0-6.857-3.070-6.857-6.857v-18.286c0-3.787 3.070-6.857 6.857-6.857h18.286c3.787 0 6.857 3.070 6.857 6.857v18.286c0 3.787-3.070 6.857-6.857 6.857zM29.714 6.857c0-2.523-2.046-4.571-4.571-4.571h-18.286c-2.526 0-4.571 2.048-4.571 4.571v18.286c0 2.523 2.046 4.571 4.571 4.571h18.286c2.526 0 4.571-2.046 4.571-4.571v-18.286z"></path>
</svg>
