<?xml version="1.0" encoding="utf-8"?>
<!-- Generated by IcoMoon.io -->
<!DOCTYPE svg PUBLIC "-//W3C//DTD SVG 1.1//EN" "http://www.w3.org/Graphics/SVG/1.1/DTD/svg11.dtd">
<svg version="1.1" xmlns="http://www.w3.org/2000/svg" xmlns:xlink="http://www.w3.org/1999/xlink" width="32" height="32" viewBox="0 0 32 32">
<path fill="#808b9a" d="M31.744 6.398l-16.135 16.133c-0.434 0.434-1.136 0.434-1.57 0-0.046-0.046-0.034-0.117-0.069-0.169l-6.791-6.789c-0.425-0.425-0.425-1.113 0-1.538 0.425-0.423 1.113-0.423 1.536 0l6.126 6.126 15.335-15.333c0.434-0.434 1.136-0.434 1.568 0 0.434 0.434 0.434 1.134 0 1.57zM6.857 2.286c-2.526 0-4.571 2.046-4.571 4.571v18.286c0 2.526 2.046 4.571 4.571 4.571h18.286c2.526 0 4.571-2.046 4.571-4.571v-11.429h2.286v11.429c0 3.787-3.070 6.857-6.857 6.857h-18.286c-3.787 0-6.857-3.070-6.857-6.857v-18.286c0-3.787 3.070-6.857 6.857-6.857h18.286c0.805 0 1.568 0.165 2.286 0.421v2.501c-0.674-0.395-1.449-0.635-2.286-0.635h-18.286z"></path>
</svg>
