<?xml version="1.0" encoding="utf-8"?>
<!-- Generated by IcoMoon.io -->
<!DOCTYPE svg PUBLIC "-//W3C//DTD SVG 1.1//EN" "http://www.w3.org/Graphics/SVG/1.1/DTD/svg11.dtd">
<svg version="1.1" xmlns="http://www.w3.org/2000/svg" xmlns:xlink="http://www.w3.org/1999/xlink" width="32" height="32" viewBox="0 0 32 32">
<path fill="#fff" d="M19.452 15.999l11.829 11.829c0.954 0.954 0.954 2.502 0 3.456s-2.502 0.954-3.454 0l-11.829-11.829-11.829 11.829c-0.954 0.954-2.502 0.954-3.454 0-0.954-0.954-0.954-2.502 0-3.456l11.829-11.829-11.829-11.832c-0.954-0.954-0.954-2.499 0-3.454s2.502-0.954 3.454 0l11.829 11.832 11.829-11.829c0.954-0.954 2.502-0.954 3.454 0s0.954 2.499 0 3.454l-11.829 11.829z"></path>
</svg>
