<?xml version="1.0" encoding="utf-8"?>
<!-- Generated by IcoMoon.io -->
<!DOCTYPE svg PUBLIC "-//W3C//DTD SVG 1.1//EN" "http://www.w3.org/Graphics/SVG/1.1/DTD/svg11.dtd">
<svg version="1.1" xmlns="http://www.w3.org/2000/svg" xmlns:xlink="http://www.w3.org/1999/xlink" width="32" height="32" viewBox="0 0 32 32">
<path fill="#e5e9ef" d="M16 0c-8.836 0-16 7.164-16 16s7.164 16 16 16 16-7.164 16-16-7.164-16-16-16zM16 30c-7.732 0-14-6.268-14-14s6.268-14 14-14c7.732 0 14 6.268 14 14s-6.268 14-14 14z"></path>
<path fill="#e5e9ef" d="M9.938 23.5l-1-1.25c0.416-0.332 0.604-0.792 0.562-1.376v-11.686h1.5v4.562h3.938v1.438h-3.938v6.25c1.082-0.5 2.376-1.062 3.876-1.688 0 0.584 0.020 1.124 0.062 1.624-1.668 0.542-2.918 1.020-3.75 1.438-0.208 0.082-0.5 0.25-0.876 0.5-0.168 0.082-0.292 0.146-0.374 0.188zM18.312 23.438c-1.5 0.042-2.23-0.668-2.188-2.124v-12.438h1.5v6.188c1.666-1.208 3.166-2.562 4.5-4.062l1.188 1.062c-1.792 1.792-3.688 3.374-5.688 4.748v4.124c-0.042 0.752 0.354 1.106 1.188 1.064h1.624c0.792 0.042 1.228-0.312 1.312-1.062 0.042-0.292 0.104-0.77 0.188-1.438 0.042-0.376 0.082-0.666 0.124-0.876 0.542 0.208 1.020 0.356 1.438 0.438-0.042 0.5-0.124 1.168-0.25 2-0.042 0.292-0.084 0.522-0.124 0.688-0.208 1.124-1 1.688-2.376 1.688h-2.436z"></path>
</svg>
