<?xml version="1.0" encoding="utf-8"?>
<!-- Generated by IcoMoon.io -->
<!DOCTYPE svg PUBLIC "-//W3C//DTD SVG 1.1//EN" "http://www.w3.org/Graphics/SVG/1.1/DTD/svg11.dtd">
<svg version="1.1" xmlns="http://www.w3.org/2000/svg" xmlns:xlink="http://www.w3.org/1999/xlink" width="32" height="32" viewBox="0 0 32 32">
<path fill="#ced6e2" d="M11.383 8.862v4.412h4.147v1.103h-4.147v6.249c1.020-0.431 2.353-1.039 4-1.824 0 0.461 0.019 0.902 0.058 1.323-1.44 0.58-2.662 1.124-3.661 1.634-0.431 0.226-0.828 0.495-1.192 0.809l-0.898-1.148c0.314-0.235 0.471-0.593 0.471-1.073v-11.486h1.222zM16.471 8.48h1.22v6.221c1.909-1.378 3.477-2.82 4.706-4.324l1.045 0.779c-1.589 1.751-3.503 3.415-5.751 4.992v4.258c0 0.648 0.284 0.971 0.853 0.971h2.515c0.648 0 1.020-0.288 1.118-0.868 0.117-0.745 0.205-1.564 0.265-2.456 0.412 0.156 0.832 0.299 1.265 0.427-0.088 0.911-0.205 1.73-0.354 2.456-0.205 1.009-0.858 1.515-1.956 1.515h-3.236c-1.128 0-1.69-0.612-1.69-1.839v-12.134z"></path>
<path fill="#ced6e2" d="M15.97 0c-8.787 0-15.912 7.125-15.912 15.912s7.125 15.912 15.912 15.912 15.912-7.125 15.912-15.912-7.123-15.912-15.912-15.912zM15.97 29.835c-7.689 0-13.922-6.234-13.922-13.922 0-7.689 6.234-13.922 13.922-13.922 7.689 0 13.922 6.232 13.922 13.922 0.002 7.688-6.232 13.922-13.922 13.922z"></path>
</svg>
