<?xml version="1.0" encoding="utf-8"?>
<!-- Generated by IcoMoon.io -->
<!DOCTYPE svg PUBLIC "-//W3C//DTD SVG 1.1//EN" "http://www.w3.org/Graphics/SVG/1.1/DTD/svg11.dtd">
<svg version="1.1" xmlns="http://www.w3.org/2000/svg" xmlns:xlink="http://www.w3.org/1999/xlink" width="32" height="32" viewBox="0 0 32 32">
<path fill="#c6d1de" d="M25.625 0h-19.127c-3.521 0-6.377 2.854-6.377 6.375v19.127c0 3.521 2.855 6.375 6.375 6.375h19.127c3.521 0 6.375-2.855 6.375-6.375v-19.127c0.001-3.521-2.852-6.375-6.374-6.375zM29.103 23.764c0 2.881-2.336 5.216-5.216 5.216h-15.651c-2.881 0-5.216-2.336-5.216-5.216v-15.649c0-2.881 2.336-5.216 5.216-5.216h15.649c2.881 0 5.216 2.336 5.216 5.216v15.649z"></path>
<path fill="#c6d1de" d="M11.34 7.897v4.874h3.903v2.352h-3.903v6.051l3.953-1.347c-0.023 0.897-0.006 1.756 0.051 2.575-2.522 0.772-4.487 1.54-5.897 2.3l-1.228-2.010c0.397-0.307 0.596-0.807 0.596-1.5v-13.295h2.524zM22.417 10.079l2.215 1.738c-1.926 1.841-3.904 3.577-5.932 5.207v3.673c0 0.716 0.289 1.073 0.87 1.073h1.193c0.444 0 0.736-0.156 0.879-0.468s0.292-1.469 0.452-3.469c0.897 0.34 1.744 0.631 2.54 0.87-0.113 1.073-0.262 2.010-0.444 2.809s-0.393 1.35-0.631 1.654-0.591 0.54-1.060 0.707-1.043 0.252-1.719 0.252h-2.148c-1.636 0-2.454-0.87-2.454-2.608v-13.824h2.522v6.289c1.235-1.175 2.474-2.477 3.718-3.903z"></path>
</svg>
