<?xml version="1.0" encoding="utf-8"?>
<!-- Generated by IcoMoon.io -->
<!DOCTYPE svg PUBLIC "-//W3C//DTD SVG 1.1//EN" "http://www.w3.org/Graphics/SVG/1.1/DTD/svg11.dtd">
<svg version="1.1" xmlns="http://www.w3.org/2000/svg" xmlns:xlink="http://www.w3.org/1999/xlink" width="32" height="32" viewBox="0 0 32 32">
<path fill="#205a8a" d="M31.966 20.226c0.087 2.406-0.046 4.631-1.233 5.207-0.823 0.399-2.001 0.11-3.534-0.873-1-0.64-2.063-1.259-3.218-2.050s-3.534-2.249-4.587-3.020c-1.271-0.931-1.941-1.886-2.050-2.862v11.814c0 0.701-0.568 1.269-1.269 1.269h-0.16c-0.701 0-1.269-0.568-1.269-1.269v-11.811c-0.11 0.975-0.78 1.929-2.053 2.86-1.053 0.771-3.432 2.229-4.587 3.020s-2.219 1.41-3.218 2.050c-1.533 0.981-2.711 1.272-3.534 0.873-1.186-0.576-1.318-2.801-1.233-5.207-0.062-1.539 0.018-3.090 0.026-4.16 0.012-1.973 0.008-2.711 0.034-4.727-0.040-2.572 0.474-4.162 1.368-4.765 0.928-0.626 3.23 0.739 4.192 1.295 0.497 0.373 1.198 0.937 2.202 1.664 0.399 0.355 3.179 2.388 4.087 3.032 1.783 1.263 2.665 2.491 2.714 3.689v-12.701c0-0.701 0.568-1.269 1.269-1.269h0.16c0.701 0 1.269 0.568 1.269 1.269v12.701c0.049-1.198 0.933-2.426 2.714-3.689 0.908-0.643 3.688-2.676 4.085-3.032 1.004-0.727 1.707-1.291 2.202-1.664 0.963-0.558 3.266-1.922 4.192-1.297 0.894 0.603 1.408 2.193 1.368 4.766 0.026 2.016 0.021 2.754 0.034 4.725 0.009 1.070 0.090 2.621 0.027 4.16z"></path>
</svg>
