<?xml version="1.0" encoding="utf-8"?>
<!-- Generated by IcoMoon.io -->
<!DOCTYPE svg PUBLIC "-//W3C//DTD SVG 1.1//EN" "http://www.w3.org/Graphics/SVG/1.1/DTD/svg11.dtd">
<svg version="1.1" xmlns="http://www.w3.org/2000/svg" xmlns:xlink="http://www.w3.org/1999/xlink" width="32" height="32" viewBox="0 0 32 32">
<path fill="#000" d="M31.389 11.148l-10.808-10.615c0 0 4.264-2.142 8.626 2.143 4.362 4.283 2.182 8.472 2.182 8.472zM24.72 12.83l-5.886-5.782c0 0 2.484-1.323 4.859 1.008 2.376 2.333 1.027 4.774 1.027 4.774zM16.739 20.739c3.473 3.412 3.925-2.077 6.14-1.082 0 0 5.346 2.88 6.246 3.762 1.169 1.146 2.166 1.6 1.312 3.661-0.785 1.892-1.481 4.288-2.362 4.793-0.879 0.505-6.174-0.632-8.66-1.392 0 0-2.939-0.515-10.025-7.475-5.962-5.857-7.61-9.846-7.61-9.846-0.518-1.468-2.585-7.362-1.439-8.489 0.963-0.944 3.5-1.944 4.867-2.307 2.272-0.605 2.974 0.558 3.719 1.288 0.912 0.897 3.828 6.124 3.828 6.124 1.13 2.616-4.568 2.605-1.093 6.016l5.076 4.947z"></path>
</svg>
