<?xml version="1.0" encoding="utf-8"?>
<!-- Generated by IcoMoon.io -->
<!DOCTYPE svg PUBLIC "-//W3C//DTD SVG 1.1//EN" "http://www.w3.org/Graphics/SVG/1.1/DTD/svg11.dtd">
<svg version="1.1" xmlns="http://www.w3.org/2000/svg" xmlns:xlink="http://www.w3.org/1999/xlink" width="32" height="32" viewBox="0 0 32 32">
<path fill="#c7d2de" d="M14.883 22.096c-0.627-0.68-0.627-1.781 0-2.464l9.064-9.848c0.624-0.677 1.64-0.677 2.269 0v0c0.624 0.677 0.624 1.781 0 2.464l-9.067 9.848c-0.629 0.683-1.64 0.683-2.267 0v0z"></path>
<path fill="#c7d2de" d="M17.149 22.096c-0.627 0.683-1.64 0.683-2.267 0l-9.064-9.848c-0.624-0.677-0.624-1.781 0-2.461v0c0.624-0.68 1.64-0.68 2.267 0l9.064 9.848c0.627 0.68 0.627 1.781 0 2.461v0z"></path>
</svg>
