<?xml version="1.0" encoding="utf-8"?>
<!-- Generator: Adobe Illustrator 17.0.0, SVG Export Plug-In . SVG Version: 6.00 Build 0)  -->
<!DOCTYPE svg PUBLIC "-//W3C//DTD SVG 1.0//EN" "http://www.w3.org/TR/2001/REC-SVG-20010904/DTD/svg10.dtd">
<svg version="1.0" id="图层_1" xmlns="http://www.w3.org/2000/svg" xmlns:xlink="http://www.w3.org/1999/xlink" x="0px" y="0px"
	 width="12px" height="12px" viewBox="0 0 12 12" enable-background="new 0 0 12 12" xml:space="preserve">
<g>
	<g>
		<path fill="#FFFFFF" d="M0.49,5.49c0.195-0.195,0.512-0.195,0.707,0l4.657,4.657c0.195,0.195,0.195,0.512,0,0.707l0,0
			c-0.195,0.195-0.512,0.195-0.707,0L0.49,6.197C0.294,6.001,0.294,5.685,0.49,5.49L0.49,5.49z"/>
		<path fill="#FFFFFF" d="M9.803,5.49c0.195-0.195,0.512-0.195,0.707,0l0,0c0.195,0.195,0.195,0.512,0,0.707l-4.657,4.657
			c-0.195,0.195-0.512,0.195-0.707,0l0,0c-0.195-0.195-0.195-0.512,0-0.707L9.803,5.49z"/>
	</g>
	<g>
		<path fill="#FFFFFF" d="M0.49,0.49c0.195-0.195,0.512-0.195,0.707,0l4.657,4.657c0.195,0.195,0.195,0.512,0,0.707l0,0
			c-0.195,0.195-0.512,0.195-0.707,0L0.49,1.197C0.294,1.001,0.294,0.685,0.49,0.49L0.49,0.49z"/>
		<path fill="#FFFFFF" d="M9.803,0.49c0.195-0.195,0.512-0.195,0.707,0l0,0c0.195,0.195,0.195,0.512,0,0.707L5.854,5.854
			c-0.195,0.195-0.512,0.195-0.707,0l0,0c-0.195-0.195-0.195-0.512,0-0.707L9.803,0.49z"/>
	</g>
</g>
</svg>
