<?xml version="1.0" encoding="utf-8"?>
<!-- Generated by IcoMoon.io -->
<!DOCTYPE svg PUBLIC "-//W3C//DTD SVG 1.1//EN" "http://www.w3.org/Graphics/SVG/1.1/DTD/svg11.dtd">
<svg version="1.1" xmlns="http://www.w3.org/2000/svg" xmlns:xlink="http://www.w3.org/1999/xlink" width="32" height="32" viewBox="0 0 32 32">
<path fill="#c6d1de" d="M23.855 30.545h-15.709c-3.69 0-6.691-3.001-6.691-6.691v-14.255c0-3.69 3.001-6.691 6.691-6.691h2.036c0.803 0 1.455 0.652 1.455 1.455s-0.652 1.455-1.455 1.455h-2.036c-2.084 0-3.782 1.697-3.782 3.782v14.255c0 2.086 1.697 3.782 3.782 3.782h15.709c2.086 0 3.782-1.696 3.782-3.782v-14.255c0-2.084-1.696-3.782-3.782-3.782h-2.036c-0.804 0-1.455-0.652-1.455-1.455s0.65-1.455 1.455-1.455h2.036c3.69 0 6.691 3.001 6.691 6.691v14.255c0 3.69-3.001 6.691-6.691 6.691z"></path>
<path fill="#c6d1de" d="M17.455 20.364c0 0.803-0.652 1.455-1.455 1.455v0c-0.803 0-1.455-0.652-1.455-1.455v-18.909c0-0.803 0.652-1.455 1.455-1.455v0c0.803 0 1.455 0.652 1.455 1.455v18.909z"></path>
<path fill="#c6d1de" d="M17.616 21.532c-0.569 0.569-1.489 0.569-2.058 0v0c-0.569-0.569-0.569-1.488 0-2.057l6.097-6.096c0.569-0.569 1.489-0.569 2.057 0v0c0.569 0.569 0.569 1.489 0 2.057l-6.096 6.096z"></path>
<path fill="#c6d1de" d="M16.441 19.475c0.567 0.57 0.567 1.489 0 2.057v0c-0.569 0.569-1.489 0.569-2.057 0l-6.097-6.097c-0.569-0.569-0.569-1.489 0-2.057v0c0.569-0.569 1.489-0.569 2.057 0l6.097 6.097z"></path>
</svg>
