<?xml version="1.0" encoding="utf-8"?>
<!-- Generated by IcoMoon.io -->
<!DOCTYPE svg PUBLIC "-//W3C//DTD SVG 1.1//EN" "http://www.w3.org/Graphics/SVG/1.1/DTD/svg11.dtd">
<svg version="1.1" xmlns="http://www.w3.org/2000/svg" xmlns:xlink="http://www.w3.org/1999/xlink" width="32" height="32" viewBox="0 0 32 32">
<path fill="#ced6e2" d="M25.143 32h-19.666c-2.52 0-4.571-2.051-4.571-4.571v-21.809c0-2.52 2.051-4.571 4.571-4.571h12.952c0.843 0 1.524 0.683 1.524 1.524s-0.681 1.524-1.524 1.524h-12.952c-0.84 0-1.524 0.684-1.524 1.524v21.809c0 0.841 0.684 1.524 1.524 1.524h19.666c0.841 0 1.524-0.683 1.524-1.524v-14.095c0-0.841 0.681-1.524 1.524-1.524s1.524 0.683 1.524 1.524v14.095c0 2.52-2.051 4.571-4.571 4.571z"></path>
<path fill="#ced6e2" d="M16.428 11.404c0 0.684-0.555 1.239-1.237 1.239h-6.667c-0.684 0-1.237-0.555-1.237-1.239v0c0-0.684 0.555-1.237 1.237-1.237h6.667c0.683 0 1.237 0.555 1.237 1.237v0z"></path>
<path fill="#ced6e2" d="M22.904 17.801c0 0.683-0.555 1.237-1.237 1.237h-13.143c-0.684 0-1.237-0.555-1.237-1.237v0c0-0.684 0.555-1.237 1.237-1.237h13.143c0.683-0.002 1.237 0.552 1.237 1.237v0z"></path>
<path fill="#ced6e2" d="M30.875 0.363c0.483 0.483 0.483 1.268 0 1.751l-10.217 10.085c-0.485 0.483-1.268 0.483-1.751 0v0c-0.483-0.483-0.483-1.268 0-1.751l10.219-10.085c0.482-0.483 1.266-0.483 1.749 0v0z"></path>
</svg>
