<?xml version="1.0" encoding="utf-8"?>
<!-- Generated by IcoMoon.io -->
<!DOCTYPE svg PUBLIC "-//W3C//DTD SVG 1.1//EN" "http://www.w3.org/Graphics/SVG/1.1/DTD/svg11.dtd">
<svg version="1.1" xmlns="http://www.w3.org/2000/svg" xmlns:xlink="http://www.w3.org/1999/xlink" width="32" height="32" viewBox="0 0 32 32">
<path fill="#5c6c77" d="M30.4 28.96c0 1.44 0 1.44-1.44 1.44h-25.92c-1.44 0-1.44 0-1.44-1.44v-25.92c0-1.44 0-1.44 1.44-1.44h16.16v-1.6h-17.6c-0.883 0-1.6 0.717-1.6 1.6v28.8c0 0.883 0.717 1.6 1.6 1.6h28.8c0.883 0 1.6-0.717 1.6-1.6v-17.6h-1.6v16.16z"></path>
<path fill="#5c6c77" d="M25.6 0l-14.4 14.4v6.4h6.4l14.4-14.4-6.4-6.4zM12.8 19.2v-4.8l12.8-12.8 4.8 4.8-12.8 12.8h-4.8z"></path>
</svg>
