<?xml version="1.0" encoding="utf-8"?>
<!-- Generated by IcoMoon.io -->
<!DOCTYPE svg PUBLIC "-//W3C//DTD SVG 1.1//EN" "http://www.w3.org/Graphics/SVG/1.1/DTD/svg11.dtd">
<svg version="1.1" xmlns="http://www.w3.org/2000/svg" xmlns:xlink="http://www.w3.org/1999/xlink" width="32" height="32" viewBox="0 0 32 32">
<path fill="#c5cfdc" d="M29.952 16.717l-13.662-10.522-0.142 0.186-0.138-0.179-13.926 10.61-2.083-2.765 5.738-4.485v-0.011h0.014l10.155-7.936 0.075 0.099 0.086-0.114 10.174 7.95h0.296v0.23l5.438 4.25-2.026 2.686zM16.714 9.55l9.824 7.565v13.234h-20.8v-13.306l9.834-7.493h1.142zM12.798 17.045l1.872 2.106h-2.683v1.6h3.2v1.6h-3.2v1.6h3.2v3.2h1.586v-3.2h3.214v-1.6h-3.214v-1.6h3.214v-1.6h-2.683l1.872-2.106-0.984-1.109-2.205 2.48-2.205-2.48-0.984 1.109z"></path>
</svg>
