<?xml version="1.0" encoding="utf-8"?>
<!-- Generated by IcoMoon.io -->
<!DOCTYPE svg PUBLIC "-//W3C//DTD SVG 1.1//EN" "http://www.w3.org/Graphics/SVG/1.1/DTD/svg11.dtd">
<svg version="1.1" xmlns="http://www.w3.org/2000/svg" xmlns:xlink="http://www.w3.org/1999/xlink" width="32" height="32" viewBox="0 0 32 32">
<path fill="#f14e4e" d="M10.182 7.273v-4.364c0-1.455 0-1.455 1.455-1.455h8.727c1.455 0 1.455 0 1.455 1.455v4.364h1.455v-5.818c0-0.803-0.652-1.455-1.455-1.455h-11.636c-0.803 0-1.455 0.652-1.455 1.455v5.818h1.455z"></path>
<path fill="#f14e4e" d="M1.455 5.818h29.091v1.455h-29.091v-1.455z"></path>
<path fill="#f14e4e" d="M26.182 7.273v21.818c0 1.455 0 1.455-1.455 1.455h-17.455c-1.455 0-1.455 0-1.455-1.455v-21.818h-1.455v23.273c0 0.803 0.652 1.455 1.455 1.455h20.364c0.803 0 1.455-0.652 1.455-1.455v-23.273h-1.455z"></path>
<path fill="#f14e4e" d="M11.636 13.091h1.455v11.636h-1.455v-11.636z"></path>
<path fill="#f14e4e" d="M18.909 13.091h1.455v11.636h-1.455v-11.636z"></path>
</svg>
