<?xml version="1.0" encoding="utf-8"?>
<!-- Generated by IcoMoon.io -->
<!DOCTYPE svg PUBLIC "-//W3C//DTD SVG 1.1//EN" "http://www.w3.org/Graphics/SVG/1.1/DTD/svg11.dtd">
<svg version="1.1" xmlns="http://www.w3.org/2000/svg" xmlns:xlink="http://www.w3.org/1999/xlink" width="32" height="32" viewBox="0 0 32 32">
<path fill="#425c6b" d="M25.414 32h-18.827c-1.559 0-2.822-1.276-2.822-2.848v-13.538c0-1.574 1.263-2.852 2.822-2.852h18.827c1.559 0.002 2.822 1.278 2.822 2.852v13.534c0 1.576-1.263 2.852-2.822 2.852zM18.788 20.836c0-1.099-1.165-1.99-2.603-1.99h-0.369c-1.44 0-2.605 0.89-2.605 1.99v5.395c0 1.099 1.165 1.992 2.603 1.992h0.369c1.44 0 2.605-0.892 2.605-1.992v-5.395zM15.872 2.854c-4.416 0-7.876 3.497-7.876 8.079h-2.822c0-5.496 4.798-10.933 10.697-10.933s10.697 5.436 10.697 10.931h-2.822c0-4.58-3.46-8.077-7.876-8.077z"></path>
</svg>
