<?xml version="1.0" encoding="utf-8"?>
<!-- Generated by IcoMoon.io -->
<!DOCTYPE svg PUBLIC "-//W3C//DTD SVG 1.1//EN" "http://www.w3.org/Graphics/SVG/1.1/DTD/svg11.dtd">
<svg version="1.1" xmlns="http://www.w3.org/2000/svg" xmlns:xlink="http://www.w3.org/1999/xlink" width="32" height="32" viewBox="0 0 32 32">
<path fill="#c5cfdc" d="M30.512 27.275c2.206 1.072 1.605 4.725 1.003 4.725h-30.864c-0.601 0-1.403-3.865 0.802-4.725 6.814-3.221 12.585-4.391 9.282-7.138-0.677-0.562-1.778-1.433-2.117-2.277-0.336-0.843-0.334-0.818-0.361-0.894-2.807-0.859-3.403-3.794-3.403-5.298s1.2-2.864 2.402-3.079c0-0.645 0.61-1.934 0.61-2.361 0.199-2.578 0.030-1.934 1.433-6.229 1.403 0.645 3.182 1.079 3.877 0.805 1.003-0.43 1.904-0.805 2.706-0.805 2.206 0 6.213 1.289 7.817 5.584 0.201 1.074 0.201 1.934 0.201 3.008 1.202 0.215 2.203 1.504 2.203 2.791 0 1.504-0.4 4.939-3.207 5.584-0.021 0.091-0.048 0.183-0.078 0.272-0.256 0.77-0.832 1.559-1.728 2.519-3.205 3.65 2.606 4.080 9.419 7.518v0z"></path>
</svg>
