<?xml version="1.0" encoding="utf-8"?>
<!-- Generated by IcoMoon.io -->
<!DOCTYPE svg PUBLIC "-//W3C//DTD SVG 1.1//EN" "http://www.w3.org/Graphics/SVG/1.1/DTD/svg11.dtd">
<svg version="1.1" xmlns="http://www.w3.org/2000/svg" xmlns:xlink="http://www.w3.org/1999/xlink" width="32" height="32" viewBox="0 0 32 32">
<path fill="#fff" d="M15.067 23.067c-0.348 0.348-0.91 0.348-1.257 0l-5.765-5.765c-0.348-0.348-0.348-0.91 0-1.257v0c0.348-0.348 0.91-0.348 1.257 0l5.764 5.764c0.348 0.348 0.348 0.91 0.001 1.258v0z"></path>
<path fill="#fff" d="M14.267 23.067c-0.348-0.348-0.348-0.91 0-1.257l10.21-10.21c0.348-0.348 0.91-0.348 1.257 0v0c0.348 0.348 0.348 0.91 0 1.257l-10.21 10.21c-0.347 0.347-0.909 0.347-1.257 0v0z"></path>
<path fill="#fff" d="M16.055 0c-8.805 0-15.944 7.139-15.944 15.945s7.139 15.945 15.945 15.945 15.944-7.14 15.944-15.945-7.139-15.945-15.945-15.945zM16.055 30.006c-7.766 0-14.061-6.296-14.061-14.061s6.296-14.062 14.061-14.062 14.061 6.296 14.061 14.061-6.295 14.062-14.061 14.062z"></path>
</svg>
