<?xml version="1.0" encoding="utf-8"?>
<!-- Generated by IcoMoon.io -->
<!DOCTYPE svg PUBLIC "-//W3C//DTD SVG 1.1//EN" "http://www.w3.org/Graphics/SVG/1.1/DTD/svg11.dtd">
<svg version="1.1" xmlns="http://www.w3.org/2000/svg" xmlns:xlink="http://www.w3.org/1999/xlink" width="32" height="32" viewBox="0 0 32 32">
<path fill="#bfc8d5" d="M17.806 17.386c-0.77 0.77-2.020 0.77-2.792 0l-13.96-13.96c-0.77-0.77-0.77-2.020 0-2.792v0c0.77-0.77 2.020-0.77 2.792 0l13.96 13.96c0.77 0.77 0.77 2.020 0 2.792v0z"></path>
<path fill="#bfc8d5" d="M17.806 14.594c0.77 0.77 0.77 2.020 0 2.792l-13.96 13.96c-0.77 0.77-2.020 0.77-2.792 0v0c-0.77-0.77-0.77-2.020 0-2.792l13.96-13.96c0.772-0.772 2.022-0.772 2.792 0v0z"></path>
<path fill="#bfc8d5" d="M31.316 17.386c-0.77 0.77-2.020 0.77-2.792 0l-13.96-13.96c-0.77-0.77-0.77-2.020 0-2.792v0c0.77-0.77 2.020-0.77 2.792 0l13.96 13.96c0.772 0.77 0.772 2.020 0 2.792v0z"></path>
<path fill="#bfc8d5" d="M31.316 14.594c0.77 0.77 0.77 2.020 0 2.792l-13.96 13.96c-0.77 0.77-2.020 0.77-2.792 0v0c-0.77-0.77-0.77-2.020 0-2.792l13.96-13.96c0.772-0.772 2.022-0.772 2.792 0v0z"></path>
</svg>
