<?xml version="1.0" encoding="utf-8"?>
<!-- Generated by IcoMoon.io -->
<!DOCTYPE svg PUBLIC "-//W3C//DTD SVG 1.1//EN" "http://www.w3.org/Graphics/SVG/1.1/DTD/svg11.dtd">
<svg version="1.1" xmlns="http://www.w3.org/2000/svg" xmlns:xlink="http://www.w3.org/1999/xlink" width="32" height="32" viewBox="0 0 32 32">
<path fill="#c5cfdc" d="M31.514 31.514c-0.648 0.648-1.699 0.648-2.347 0l-6.338-6.338c-2.405 1.897-5.402 3.076-8.703 3.076-7.801 0-14.126-6.325-14.126-14.126s6.325-14.126 14.126-14.126 14.126 6.325 14.126 14.126c0 3.302-1.179 6.298-3.078 8.703l6.338 6.338c0.65 0.648 0.65 1.699 0.002 2.347zM14.126 3.767c-5.722 0-10.359 4.639-10.359 10.359 0 5.722 4.637 10.359 10.359 10.359 2.531 0 4.82-0.944 6.62-2.452 0.060-0.315 0.183-0.618 0.426-0.861s0.548-0.363 0.861-0.426c1.509-1.801 2.452-4.089 2.452-6.62 0-5.72-4.637-10.359-10.359-10.359z"></path>
</svg>
