<?xml version="1.0" encoding="utf-8"?>
<!-- Generated by IcoMoon.io -->
<!DOCTYPE svg PUBLIC "-//W3C//DTD SVG 1.1//EN" "http://www.w3.org/Graphics/SVG/1.1/DTD/svg11.dtd">
<svg version="1.1" xmlns="http://www.w3.org/2000/svg" xmlns:xlink="http://www.w3.org/1999/xlink" width="28" height="32" viewBox="0 0 28 32">
<path fill="#555b63" d="M28 12c0-1.104-0.896-2-2-2h-24c-1.104 0-2 0.896-2 2v18c0 1.104 0.896 2 2 2h24c1.104 0 2-0.896 2-2v-18zM24 28h-20v-14h20v14z"></path>
<path fill="#555b63" d="M19.376 7.382l2.936-2.936c-1.794-2.68-4.846-4.446-8.312-4.446-5.522 0-10 4.478-10 10h4c0-3.314 2.686-6 6-6 2.37 0 4.4 1.386 5.376 3.382z"></path>
</svg>
