<?xml version="1.0" encoding="utf-8"?>
<!-- Generator: Adobe Illustrator 16.0.0, SVG Export Plug-In . SVG Version: 6.00 Build 0)  -->
<!DOCTYPE svg PUBLIC "-//W3C//DTD SVG 1.1//EN" "http://www.w3.org/Graphics/SVG/1.1/DTD/svg11.dtd">
<svg version="1.1" id="图层_1" xmlns="http://www.w3.org/2000/svg" xmlns:xlink="http://www.w3.org/1999/xlink" x="0px" y="0px"
	 width="6.312px" height="6.875px" viewBox="0 0 6.312 6.875" enable-background="new 0 0 6.312 6.875" xml:space="preserve">
<g>
	<path fill="#FFFFFF" d="M5.919,3.366c-0.107,0.107-0.281,0.107-0.388,0L2.978,0.812c-0.107-0.107-0.107-0.281,0-0.388l0,0
		c0.107-0.107,0.281-0.107,0.388,0l2.554,2.554C6.027,3.085,6.027,3.258,5.919,3.366L5.919,3.366z"/>
	<path fill="#FFFFFF" d="M0.812,3.366c-0.107,0.107-0.281,0.107-0.388,0l0,0c-0.107-0.107-0.107-0.281,0-0.388l2.554-2.554
		c0.107-0.107,0.281-0.107,0.388,0l0,0c0.107,0.107,0.107,0.281,0,0.388L0.812,3.366z"/>
</g>
<g>
	<path fill="#FFFFFF" d="M5.919,6.108c-0.107,0.107-0.281,0.107-0.388,0L2.978,3.554c-0.107-0.107-0.107-0.281,0-0.388l0,0
		c0.107-0.107,0.281-0.107,0.388,0L5.919,5.72C6.027,5.827,6.027,6.001,5.919,6.108L5.919,6.108z"/>
	<path fill="#FFFFFF" d="M0.812,6.108c-0.107,0.107-0.281,0.107-0.388,0l0,0c-0.107-0.106-0.107-0.281,0-0.388l2.554-2.554
		c0.107-0.107,0.281-0.107,0.388,0l0,0c0.107,0.107,0.107,0.281,0,0.388L0.812,6.108z"/>
</g>
</svg>
