<?xml version="1.0" encoding="utf-8"?>
<!-- Generated by IcoMoon.io -->
<!DOCTYPE svg PUBLIC "-//W3C//DTD SVG 1.1//EN" "http://www.w3.org/Graphics/SVG/1.1/DTD/svg11.dtd">
<svg version="1.1" xmlns="http://www.w3.org/2000/svg" xmlns:xlink="http://www.w3.org/1999/xlink" width="32" height="32" viewBox="0 0 32 32">
<path fill="#c7d2de" d="M17.149 9.84c0.624 0.68 0.624 1.784 0 2.464l-9.067 9.851c-0.624 0.683-1.64 0.683-2.267 0v0c-0.627-0.677-0.627-1.784 0-2.461l9.067-9.853c0.627-0.677 1.637-0.677 2.267 0v0z"></path>
<path fill="#c7d2de" d="M14.883 9.84c0.624-0.677 1.637-0.677 2.267 0l9.061 9.853c0.624 0.677 0.624 1.784 0 2.461v0c-0.624 0.683-1.643 0.683-2.269 0l-9.059-9.851c-0.627-0.68-0.627-1.781 0-2.464v0z"></path>
</svg>
