<?xml version="1.0" encoding="utf-8"?>
<!-- Generated by IcoMoon.io -->
<!DOCTYPE svg PUBLIC "-//W3C//DTD SVG 1.1//EN" "http://www.w3.org/Graphics/SVG/1.1/DTD/svg11.dtd">
<svg version="1.1" xmlns="http://www.w3.org/2000/svg" xmlns:xlink="http://www.w3.org/1999/xlink" width="32" height="32" viewBox="0 0 32 32">
<path fill="#ced6e2" d="M29.091 2.909h-26.182c-0.803 0-1.455-0.652-1.455-1.455s0.652-1.455 1.455-1.455h26.182c0.804 0 1.455 0.652 1.455 1.455s-0.65 1.455-1.455 1.455z"></path>
<path fill="#ced6e2" d="M16 32c-0.803 0-1.455-0.65-1.455-1.455v-21.818c0-0.803 0.652-1.455 1.455-1.455 0.804 0 1.455 0.652 1.455 1.455v21.818c0 0.804-0.65 1.455-1.455 1.455z"></path>
<path fill="#ced6e2" d="M2.092 22.092c-0.372 0-0.745-0.143-1.028-0.426-0.569-0.569-0.569-1.488 0-2.057l13.953-13.955c0.569-0.569 1.489-0.569 2.058 0 0.567 0.569 0.567 1.488 0 2.057l-13.953 13.955c-0.285 0.284-0.657 0.426-1.030 0.426z"></path>
<path fill="#ced6e2" d="M29.136 22.092c-0.372 0-0.745-0.143-1.028-0.426l-13.953-13.955c-0.569-0.569-0.569-1.488 0-2.057s1.488-0.569 2.057 0l13.953 13.955c0.569 0.569 0.569 1.488 0 2.057-0.284 0.284-0.656 0.426-1.028 0.426z"></path>
</svg>
