<?xml version="1.0" encoding="utf-8"?>
<!-- Generated by IcoMoon.io -->
<!DOCTYPE svg PUBLIC "-//W3C//DTD SVG 1.1//EN" "http://www.w3.org/Graphics/SVG/1.1/DTD/svg11.dtd">
<svg version="1.1" xmlns="http://www.w3.org/2000/svg" xmlns:xlink="http://www.w3.org/1999/xlink" width="32" height="32" viewBox="0 0 32 32">
<path fill="#e34e4c" d="M16 32c-8.836 0-16-7.164-16-16s7.164-16 16-16 16 7.164 16 16-7.164 16-16 16zM16 2.133c-7.658 0-13.867 6.209-13.867 13.867s6.209 13.867 13.867 13.867 13.867-6.209 13.867-13.867-6.209-13.867-13.867-13.867zM16 24c-0.884 0-1.6-0.716-1.6-1.6s0.716-1.6 1.6-1.6 1.6 0.716 1.6 1.6c0 0.884-0.716 1.6-1.6 1.6zM16 18.133c-0.589 0-1.067-0.478-1.067-1.067v-8.533c0-0.589 0.478-1.067 1.067-1.067s1.067 0.478 1.067 1.067v8.533c0 0.589-0.478 1.067-1.067 1.067z"></path>
</svg>
