<?xml version="1.0" encoding="utf-8"?>
<!-- Generated by IcoMoon.io -->
<!DOCTYPE svg PUBLIC "-//W3C//DTD SVG 1.1//EN" "http://www.w3.org/Graphics/SVG/1.1/DTD/svg11.dtd">
<svg version="1.1" xmlns="http://www.w3.org/2000/svg" xmlns:xlink="http://www.w3.org/1999/xlink" width="32" height="32" viewBox="0 0 32 32">
<path fill="#56626a" d="M16 32c-8.837 0-16-7.163-16-16s7.163-16 16-16 16 7.163 16 16-7.163 16-16 16zM15.88 24.629c1.017 0 1.842-0.825 1.842-1.842s-0.825-1.842-1.842-1.842-1.842 0.825-1.842 1.842 0.825 1.842 1.842 1.842zM18.426 9.204c0-1.401-1.136-2.537-2.537-2.537s-2.537 1.136-2.537 2.537c0 0.081 0.016 0.156 0.024 0.235h-0.036l2.087 9.535h0.019c0.046 0.204 0.222 0.359 0.444 0.359s0.398-0.156 0.444-0.359h0.014l2.021-9.239c0.002-0.012 0.005-0.023 0.008-0.035l0.057-0.261h-0.031c0.006-0.078 0.023-0.154 0.023-0.235z"></path>
</svg>
