<?xml version="1.0" standalone="no"?> 
<!DOCTYPE svg PUBLIC "-//W3C//DTD SVG 1.1//EN" "http://www.w3.org/Graphics/SVG/1.1/DTD/svg11.dtd" >
<svg xmlns="http://www.w3.org/2000/svg">
<defs>
  <font id="matrix_newicon" horiz-adv-x="32">
    <font-face font-family="matrix_newicon"
      units-per-em="32" ascent="32"
      descent="0" />
    <missing-glyph horiz-adv-x="0" />
    <glyph glyph-name="add"
      unicode="&#xE001;"
      horiz-adv-x="32" d=" M16 32C7.163 32 0 24.837 0 16S7.163 0 16 0S32 7.163 32 16S24.837 32 16 32zM16 2.462C8.522 2.462 2.462 8.522 2.462 16S8.522 29.538 16 29.538S29.538 23.478 29.538 16C29.538 8.522 23.478 2.462 16 2.462z M7.385 17.231H24.616V14.769H7.385V17.231z M14.769 24.615H17.231V7.384H14.769V24.615z" />
    <glyph glyph-name="add_fund"
      unicode="&#xE002;"
      horiz-adv-x="32" d=" M27.208 4.934V0H21.94V4.934H16.856V10.196H21.942V15.128H27.21V10.194H32V4.932H27.208zM26.64 26.738H12.352V19.822H5.268V5.388H14.164V0.126H0V22.97L9.288 32H31.908V17.946H26.64V26.738z" />
    <glyph glyph-name="bin"
      unicode="&#xE003;"
      horiz-adv-x="32" d=" M4 22V2C4 0.9 4.9 0 6 0H24C25.1 0 26 0.9 26 2V22H4zM10 4H8V18H10V4zM14 4H12V18H14V4zM18 4H16V18H18V4zM22 4H20V18H22V4z M26.5 28H20V30.5C20 31.325 19.325 32 18.5 32H11.5C10.675 32 10 31.325 10 30.5V28H3.5C2.675 28 2 27.325 2 26.5V24H28V26.5C28 27.325 27.325 28 26.5 28zM18 28H12V29.975H18V28z" />
    <glyph glyph-name="bin2"
      unicode="&#xE004;"
      horiz-adv-x="32" d=" M6 0H26L28 22H4zM20 28V32H12V28H2V22L4 24H28L30 22V28H20zM18 28H14V30H18V28z" />
    <glyph glyph-name="cancel-circle"
      unicode="&#xE005;"
      horiz-adv-x="32" d=" M16 32C7.163 32 0 24.837 0 16S7.163 0 16 0S32 7.163 32 16S24.837 32 16 32zM16 3C8.82 3 3 8.82 3 16S8.82 29 16 29S29 23.18 29 16S23.18 3 16 3z M21 24L16 19L11 24L8 21L13 16L8 11L11 8L16 13L21 8L24 11L19 16L24 21z" />
    <glyph glyph-name="checkbox"
      unicode="&#xE006;"
      horiz-adv-x="32" d=" M25.143 0H6.857C3.07 0 0 3.07 0 6.857V25.143C0 28.93 3.07 32 6.857 32H25.143C28.93 32 32 28.93 32 25.143V6.857C32 3.07 28.93 0 25.143 0zM29.714 25.143C29.714 27.666 27.668 29.714 25.143 29.714H6.857C4.331 29.714 2.286 27.666 2.286 25.143V6.857C2.286 4.334 4.332 2.286 6.857 2.286H25.143C27.669 2.286 29.714 4.332 29.714 6.857V25.143z" />
    <glyph glyph-name="checked"
      unicode="&#xE007;"
      horiz-adv-x="32" d=" M31.744 25.602L15.609 9.469C15.175 9.035 14.473 9.035 14.039 9.469C13.993 9.515 14.005 9.586 13.97 9.638L7.179 16.427C6.754 16.852 6.754 17.54 7.179 17.965C7.604 18.388 8.292 18.388 8.715 17.965L14.841 11.839L30.176 27.172C30.61 27.606 31.312 27.606 31.744 27.172C32.178 26.738 32.178 26.038 31.744 25.602zM6.857 29.714C4.331 29.714 2.286 27.668 2.286 25.143V6.857C2.286 4.331 4.332 2.286 6.857 2.286H25.143C27.669 2.286 29.714 4.332 29.714 6.857V18.286H32V6.857C32 3.07 28.93 0 25.143 0H6.857C3.07 0 0 3.07 0 6.857V25.143C0 28.93 3.07 32 6.857 32H25.143C25.948 32 26.711 31.835 27.429 31.579V29.078C26.755 29.473 25.98 29.713 25.143 29.713H6.857z" />
    <glyph glyph-name="checkmark"
      unicode="&#xE008;"
      horiz-adv-x="32" d=" M27 28L12 13L5 20L0 15L12 3L32 23z" />
    <glyph glyph-name="circle-down"
      unicode="&#xE009;"
      horiz-adv-x="32" d=" M32 16C32 24.837 24.837 32 16 32S0 24.837 0 16S7.163 0 16 0S32 7.163 32 16zM3 16C3 23.18 8.82 29 16 29S29 23.18 29 16S23.18 3 16 3S3 8.82 3 16z M9.914 20.914L7.085 18.085L15.999 9.171L24.913 18.085L22.085 20.913L15.999 14.827z" />
    <glyph glyph-name="circle-left"
      unicode="&#xE00A;"
      horiz-adv-x="32" d=" M16 0C24.837 0 32 7.163 32 16S24.837 32 16 32S0 24.837 0 16S7.163 0 16 0zM16 29C23.18 29 29 23.18 29 16S23.18 3 16 3S3 8.82 3 16S8.82 29 16 29z M20.914 22.086L18.085 24.915L9.171 16.001L18.085 7.087L20.913 9.915L14.827 16.001z" />
    <glyph glyph-name="circle-right"
      unicode="&#xE00B;"
      horiz-adv-x="32" d=" M16 32C7.163 32 0 24.837 0 16S7.163 0 16 0S32 7.163 32 16S24.837 32 16 32zM16 3C8.82 3 3 8.82 3 16S8.82 29 16 29S29 23.18 29 16S23.18 3 16 3z M11.086 9.914L13.915 7.085L22.829 15.999L13.915 24.913L11.087 22.085L17.173 15.999z" />
    <glyph glyph-name="circle-up"
      unicode="&#xE00C;"
      horiz-adv-x="32" d=" M0 16C0 7.163 7.163 0 16 0S32 7.163 32 16S24.837 32 16 32S0 24.837 0 16zM29 16C29 8.82 23.18 3 16 3S3 8.82 3 16S8.82 29 16 29S29 23.18 29 16z M22.086 11.086L24.915 13.915L16.001 22.829L7.087 13.915L9.915 11.087L16.001 17.173z" />
    <glyph glyph-name="circle"
      unicode="&#xE00D;"
      horiz-adv-x="32" d=" M16 0C7.163 0 0 7.163 0 16S7.163 32 16 32S32 24.837 32 16S24.837 0 16 0zM16 29.538C8.522 29.538 2.462 23.478 2.462 16S8.522 2.462 16 2.462S29.538 8.522 29.538 16S23.478 29.538 16 29.538z" />
    <glyph glyph-name="circle_check"
      unicode="&#xE00E;"
      horiz-adv-x="32" d=" M16 0C7.163 0 0 7.163 0 16S7.163 32 16 32S32 24.837 32 16S24.837 0 16 0zM16 29.538C8.522 29.538 2.462 23.478 2.462 16S8.522 2.462 16 2.462S29.538 8.522 29.538 16S23.478 29.538 16 29.538zM16 9.846C12.601 9.846 9.846 12.603 9.846 16C9.846 19.399 12.6 22.154 16 22.154S22.154 19.4 22.154 16C22.154 12.603 19.4 9.846 16 9.846z" />
    <glyph glyph-name="close"
      unicode="&#xE00F;"
      horiz-adv-x="32" d=" M19.452 16.001L31.281 4.172C32.235 3.218 32.235 1.67 31.281 0.716S28.779 -0.238 27.827 0.716L15.998 12.545L4.169 0.716C3.215 -0.238 1.667 -0.238 0.715 0.716C-0.239 1.67 -0.239 3.218 0.715 4.172L12.544 16.001L0.715 27.833C-0.239 28.787 -0.239 30.332 0.715 31.287S3.217 32.241 4.169 31.287L15.998 19.455L27.827 31.284C28.781 32.238 30.329 32.238 31.281 31.284S32.235 28.785 31.281 27.83L19.452 16.001z" />
    <glyph glyph-name="compare"
      unicode="&#xE010;"
      horiz-adv-x="32" d=" M31.966 11.774C32.053 9.368 31.92 7.143 30.733 6.567C29.91 6.168 28.732 6.457 27.199 7.44C26.199 8.08 25.136 8.699 23.981 9.49S20.447 11.739 19.394 12.51C18.123 13.441 17.453 14.396 17.344 15.372V3.558C17.344 2.857 16.776 2.289 16.075 2.289H15.915C15.214 2.289 14.646 2.857 14.646 3.558V15.369C14.536 14.394 13.866 13.44 12.593 12.509C11.54 11.738 9.161 10.28 8.006 9.489S5.787 8.079 4.788 7.439C3.255 6.458 2.077 6.167 1.254 6.566C0.068 7.142 -0.064 9.367 0.021 11.773C-0.041 13.312 0.039 14.863 0.047 15.933C0.059 17.906 0.055 18.644 0.081 20.66C0.041 23.232 0.555 24.822 1.449 25.425C2.377 26.051 4.679 24.686 5.641 24.13C6.138 23.757 6.839 23.193 7.843 22.466C8.242 22.111 11.022 20.078 11.93 19.434C13.713 18.171 14.595 16.943 14.644 15.745V28.446C14.644 29.147 15.212 29.715 15.913 29.715H16.073C16.774 29.715 17.342 29.147 17.342 28.446V15.745C17.391 16.943 18.275 18.171 20.056 19.434C20.964 20.077 23.744 22.11 24.141 22.466C25.145 23.193 25.848 23.757 26.343 24.13C27.306 24.688 29.609 26.052 30.535 25.427C31.429 24.824 31.943 23.234 31.903 20.661C31.929 18.645 31.924 17.907 31.937 15.936C31.946 14.866 32.027 13.315 31.964 11.776z" />
    <glyph glyph-name="compare2"
      unicode="&#xE011;"
      horiz-adv-x="32" d=" M25.625 32H6.498C2.977 32 0.121 29.146 0.121 25.625V6.498C0.121 2.977 2.976 0.123 6.496 0.123H25.623C29.144 0.123 31.998 2.978 31.998 6.498V25.625C31.999 29.146 29.146 32 25.624 32zM29.103 8.236C29.103 5.355 26.767 3.02 23.887 3.02H8.236C5.355 3.02 3.02 5.356 3.02 8.236V23.885C3.02 26.766 5.356 29.101 8.236 29.101H23.885C26.766 29.101 29.101 26.765 29.101 23.885V8.236z M11.34 24.103V19.229H15.243V16.877H11.34V10.826L15.293 12.173C15.27 11.276 15.287 10.417 15.344 9.598C12.822 8.826 10.857 8.058 9.447 7.298L8.219 9.308C8.616 9.615 8.815 10.115 8.815 10.808V24.103H11.339zM22.417 21.921L24.632 20.183C22.706 18.342 20.728 16.606 18.7 14.976V11.303C18.7 10.587 18.989 10.23 19.57 10.23H20.763C21.207 10.23 21.499 10.386 21.642 10.698S21.934 12.167 22.094 14.167C22.991 13.827 23.838 13.536 24.634 13.297C24.521 12.224 24.372 11.287 24.19 10.488S23.797 9.138 23.559 8.834S22.968 8.294 22.499 8.127S21.456 7.875 20.78 7.875H18.632C16.996 7.875 16.178 8.745 16.178 10.483V24.307H18.7V18.018C19.935 19.193 21.174 20.495 22.418 21.921z" />
    <glyph glyph-name="compare3"
      unicode="&#xE012;"
      horiz-adv-x="32" d=" M11.383 23.138V18.726H15.53V17.623H11.383V11.374C12.403 11.805 13.736 12.413 15.383 13.198C15.383 12.737 15.402 12.296 15.441 11.875C14.001 11.295 12.779 10.751 11.78 10.241C11.349 10.015 10.952 9.746 10.588 9.432L9.69 10.58C10.004 10.815 10.161 11.173 10.161 11.653V23.139H11.383zM16.471 23.52H17.691V17.299C19.6 18.677 21.168 20.119 22.397 21.623L23.442 20.844C21.853 19.093 19.939 17.429 17.691 15.852V11.594C17.691 10.946 17.975 10.623 18.544 10.623H21.059C21.707 10.623 22.079 10.911 22.177 11.491C22.294 12.236 22.382 13.055 22.442 13.947C22.854 13.791 23.274 13.648 23.707 13.52C23.619 12.609 23.502 11.79 23.353 11.064C23.148 10.055 22.495 9.549 21.397 9.549H18.161C17.033 9.549 16.471 10.161 16.471 11.388V23.522z M15.97 32C7.183 32 0.058 24.875 0.058 16.088S7.183 0.176 15.97 0.176S31.882 7.301 31.882 16.088S24.759 32 15.97 32zM15.97 2.165C8.281 2.165 2.048 8.399 2.048 16.087C2.048 23.776 8.282 30.009 15.97 30.009C23.659 30.009 29.892 23.777 29.892 16.087C29.894 8.399 23.66 2.165 15.97 2.165z" />
    <glyph glyph-name="compare4"
      unicode="&#xE013;"
      horiz-adv-x="32" d=" M16 32C7.164 32 0 24.836 0 16S7.164 0 16 0S32 7.164 32 16S24.836 32 16 32zM16 2C8.268 2 2 8.268 2 16S8.268 30 16 30C23.732 30 30 23.732 30 16S23.732 2 16 2z M9.938 8.5L8.938 9.75C9.354 10.082 9.542 10.542 9.5 11.126V22.812H11V18.25H14.938V16.812H11V10.562C12.082 11.062 13.376 11.624 14.876 12.25C14.876 11.666 14.896 11.126 14.938 10.626C13.27 10.084 12.02 9.606 11.188 9.188C10.98 9.106 10.688 8.938 10.312 8.688C10.144 8.606 10.02 8.542 9.938 8.5zM18.312 8.562C16.812 8.52 16.082 9.23 16.124 10.686V23.124H17.624V16.936C19.29 18.144 20.79 19.498 22.124 20.998L23.312 19.936C21.52 18.144 19.624 16.562 17.624 15.188V11.064C17.582 10.312 17.978 9.958 18.812 10H20.436C21.228 9.958 21.664 10.312 21.748 11.062C21.79 11.354 21.852 11.832 21.936 12.5C21.978 12.876 22.018 13.166 22.06 13.376C22.602 13.168 23.08 13.02 23.498 12.938C23.456 12.438 23.374 11.77 23.248 10.938C23.206 10.646 23.164 10.416 23.124 10.25C22.916 9.126 22.124 8.562 20.748 8.562H18.312z" />
    <glyph glyph-name="compare5"
      unicode="&#xE014;"
      horiz-adv-x="32" d=" M16 32C7.164 32 0 24.836 0 16S7.164 0 16 0S32 7.164 32 16S24.836 32 16 32zM16 2C8.268 2 2 8.268 2 16S8.268 30 16 30C23.732 30 30 23.732 30 16S23.732 2 16 2z M9.938 8.5L8.938 9.75C9.354 10.082 9.542 10.542 9.5 11.126V22.812H11V18.25H14.938V16.812H11V10.562C12.082 11.062 13.376 11.624 14.876 12.25C14.876 11.666 14.896 11.126 14.938 10.626C13.27 10.084 12.02 9.606 11.188 9.188C10.98 9.106 10.688 8.938 10.312 8.688C10.144 8.606 10.02 8.542 9.938 8.5zM18.312 8.562C16.812 8.52 16.082 9.23 16.124 10.686V23.124H17.624V16.936C19.29 18.144 20.79 19.498 22.124 20.998L23.312 19.936C21.52 18.144 19.624 16.562 17.624 15.188V11.064C17.582 10.312 17.978 9.958 18.812 10H20.436C21.228 9.958 21.664 10.312 21.748 11.062C21.79 11.354 21.852 11.832 21.936 12.5C21.978 12.876 22.018 13.166 22.06 13.376C22.602 13.168 23.08 13.02 23.498 12.938C23.456 12.438 23.374 11.77 23.248 10.938C23.206 10.646 23.164 10.416 23.124 10.25C22.916 9.126 22.124 8.562 20.748 8.562H18.312z" />
    <glyph glyph-name="compare6"
      unicode="&#xE015;"
      horiz-adv-x="32" d=" M16 32C7.164 32 0 24.836 0 16S7.164 0 16 0S32 7.164 32 16S24.836 32 16 32zM16 2C8.268 2 2 8.268 2 16S8.268 30 16 30C23.732 30 30 23.732 30 16S23.732 2 16 2z M9.938 8.5L8.938 9.75C9.354 10.082 9.542 10.542 9.5 11.126V22.812H11V18.25H14.938V16.812H11V10.562C12.082 11.062 13.376 11.624 14.876 12.25C14.876 11.666 14.896 11.126 14.938 10.626C13.27 10.084 12.02 9.606 11.188 9.188C10.98 9.106 10.688 8.938 10.312 8.688C10.144 8.606 10.02 8.542 9.938 8.5zM18.312 8.562C16.812 8.52 16.082 9.23 16.124 10.686V23.124H17.624V16.936C19.29 18.144 20.79 19.498 22.124 20.998L23.312 19.936C21.52 18.144 19.624 16.562 17.624 15.188V11.064C17.582 10.312 17.978 9.958 18.812 10H20.436C21.228 9.958 21.664 10.312 21.748 11.062C21.79 11.354 21.852 11.832 21.936 12.5C21.978 12.876 22.018 13.166 22.06 13.376C22.602 13.168 23.08 13.02 23.498 12.938C23.456 12.438 23.374 11.77 23.248 10.938C23.206 10.646 23.164 10.416 23.124 10.25C22.916 9.126 22.124 8.562 20.748 8.562H18.312z" />
    <glyph glyph-name="contact"
      unicode="&#xE016;"
      horiz-adv-x="32" d=" M31.389 20.852L20.581 31.467C20.581 31.467 24.845 33.609 29.207 29.324C33.569 25.041 31.389 20.852 31.389 20.852zM24.72 19.17L18.834 24.952C18.834 24.952 21.318 26.275 23.693 23.944C26.069 21.611 24.72 19.17 24.72 19.17zM16.739 11.261C20.212 7.849 20.664 13.338 22.879 12.343C22.879 12.343 28.225 9.463 29.125 8.581C30.294 7.435 31.291 6.981 30.437 4.92C29.652 3.028 28.956 0.632 28.075 0.127C27.196 -0.378 21.901 0.759 19.415 1.519C19.415 1.519 16.476 2.034 9.39 8.994C3.428 14.851 1.78 18.84 1.78 18.84C1.262 20.308 -0.805 26.202 0.341 27.329C1.304 28.273 3.841 29.273 5.208 29.636C7.48 30.241 8.182 29.078 8.927 28.348C9.839 27.451 12.755 22.224 12.755 22.224C13.885 19.608 8.187 19.619 11.662 16.208L16.738 11.261z" />
    <glyph glyph-name="cross"
      unicode="&#xE017;"
      horiz-adv-x="32" d=" M31.708 6.292C31.708 6.292 31.708 6.292 31.708 6.292L22 16L31.708 25.708C31.708 25.708 31.708 25.708 31.708 25.708C31.813 25.813 31.888 25.935 31.937 26.065C32.07 26.421 31.994 26.836 31.708 27.122L27.122 31.708C26.836 31.994 26.42 32.069 26.065 31.937C25.935 31.889 25.813 31.813 25.708 31.709C25.708 31.709 25.708 31.709 25.708 31.709L16 22.001L6.292 31.709C6.292 31.709 6.292 31.709 6.292 31.709C6.187 31.813 6.065 31.889 5.935 31.937C5.579 32.07 5.164 31.994 4.878 31.708L0.292 27.122C0.006 26.836 -0.069 26.42 0.063 26.065C0.112 25.935 0.187 25.813 0.292 25.708C0.292 25.708 0.292 25.708 0.292 25.708L10 16L0.292 6.292C0.292 6.292 0.292 6.292 0.292 6.292C0.188 6.187 0.112 6.065 0.063 5.935C-0.07 5.58 0.006 5.164 0.292 4.878L4.878 0.292C5.164 0.006 5.58 -0.069 5.935 0.063C6.065 0.112 6.187 0.187 6.292 0.292C6.292 0.292 6.292 0.292 6.292 0.292L16 10L25.708 0.292C25.708 0.292 25.708 0.292 25.708 0.292C25.813 0.187 25.935 0.112 26.065 0.063C26.421 -0.07 26.836 0.006 27.122 0.292L31.708 4.878C31.994 5.164 32.07 5.58 31.937 5.935C31.888 6.065 31.813 6.187 31.708 6.292z" />
    <glyph glyph-name="ctrl"
      unicode="&#xE018;"
      horiz-adv-x="32" d=" M23 18C22.722 18 22.445 18.116 22.247 18.341L16 25.481L9.753 18.341C9.389 17.925 8.758 17.883 8.342 18.247S7.884 19.242 8.248 19.658L15.248 27.658C15.438 27.875 15.712 27.999 16.001 27.999S16.564 27.874 16.754 27.658L23.754 19.658C24.118 19.242 24.076 18.611 23.66 18.247C23.47 18.081 23.236 18 23.002 18z" />
    <glyph glyph-name="down3"
      unicode="&#xE019;"
      horiz-adv-x="32" d=" M14.883 9.904C14.256 10.584 14.256 11.685 14.883 12.368L23.947 22.216C24.571 22.893 25.587 22.893 26.216 22.216V22.216C26.84 21.539 26.84 20.435 26.216 19.752L17.149 9.904C16.52 9.221 15.509 9.221 14.882 9.904V9.904z M17.149 9.904C16.522 9.221 15.509 9.221 14.882 9.904L5.818 19.752C5.194 20.429 5.194 21.533 5.818 22.213V22.213C6.442 22.893 7.458 22.893 8.085 22.213L17.149 12.365C17.776 11.685 17.776 10.584 17.149 9.904V9.904z" />
    <glyph glyph-name="download"
      unicode="&#xE01A;"
      horiz-adv-x="32" d=" M23.855 1.455H8.146C4.456 1.455 1.455 4.456 1.455 8.146V22.401C1.455 26.091 4.456 29.092 8.146 29.092H10.182C10.985 29.092 11.637 28.44 11.637 27.637S10.985 26.182 10.182 26.182H8.146C6.062 26.182 4.364 24.485 4.364 22.4V8.145C4.364 6.059 6.061 4.363 8.146 4.363H23.855C25.941 4.363 27.637 6.059 27.637 8.145V22.4C27.637 24.484 25.941 26.182 23.855 26.182H21.819C21.015 26.182 20.364 26.834 20.364 27.637S21.014 29.092 21.819 29.092H23.855C27.545 29.092 30.546 26.091 30.546 22.401V8.146C30.546 4.456 27.545 1.455 23.855 1.455z M17.455 11.636C17.455 10.833 16.803 10.181 16 10.181V10.181C15.197 10.181 14.545 10.833 14.545 11.636V30.545C14.545 31.348 15.197 32 16 32V32C16.803 32 17.455 31.348 17.455 30.545V11.636z M17.616 10.468C17.047 9.899 16.127 9.899 15.558 10.468V10.468C14.989 11.037 14.989 11.956 15.558 12.525L21.655 18.621C22.224 19.19 23.144 19.19 23.712 18.621V18.621C24.281 18.052 24.281 17.132 23.712 16.564L17.616 10.468z M16.441 12.525C17.008 11.955 17.008 11.036 16.441 10.468V10.468C15.872 9.899 14.952 9.899 14.384 10.468L8.287 16.565C7.718 17.134 7.718 18.054 8.287 18.622V18.622C8.856 19.191 9.776 19.191 10.344 18.622L16.441 12.525z" />
    <glyph glyph-name="edit"
      unicode="&#xE01B;"
      horiz-adv-x="32" d=" M25.143 0H5.477C2.957 0 0.906 2.051 0.906 4.571V26.38C0.906 28.9 2.957 30.951 5.477 30.951H18.429C19.272 30.951 19.953 30.268 19.953 29.427S19.272 27.903 18.429 27.903H5.477C4.637 27.903 3.953 27.219 3.953 26.379V4.57C3.953 3.729 4.637 3.046 5.477 3.046H25.143C25.984 3.046 26.667 3.729 26.667 4.57V18.665C26.667 19.506 27.348 20.189 28.191 20.189S29.715 19.506 29.715 18.665V4.57C29.715 2.05 27.664 -0.001 25.144 -0.001z M16.428 20.596C16.428 19.912 15.873 19.357 15.191 19.357H8.524C7.84 19.357 7.287 19.912 7.287 20.596V20.596C7.287 21.28 7.842 21.833 8.524 21.833H15.191C15.874 21.833 16.428 21.278 16.428 20.596V20.596z M22.904 14.199C22.904 13.516 22.349 12.962 21.667 12.962H8.524C7.84 12.962 7.287 13.517 7.287 14.199V14.199C7.287 14.883 7.842 15.436 8.524 15.436H21.667C22.35 15.438 22.904 14.884 22.904 14.199V14.199z M30.875 31.637C31.358 31.154 31.358 30.369 30.875 29.886L20.658 19.801C20.173 19.318 19.39 19.318 18.907 19.801V19.801C18.424 20.284 18.424 21.069 18.907 21.552L29.126 31.637C29.608 32.12 30.392 32.12 30.875 31.637V31.637z" />
    <glyph glyph-name="edit2"
      unicode="&#xE01C;"
      horiz-adv-x="32" d=" M30.4 3.04C30.4 1.6 30.4 1.6 28.96 1.6H3.04C1.6 1.6 1.6 1.6 1.6 3.04V28.96C1.6 30.4 1.6 30.4 3.04 30.4H19.2V32H1.6C0.717 32 0 31.283 0 30.4V1.6C0 0.717 0.717 0 1.6 0H30.4C31.283 0 32 0.717 32 1.6V19.2H30.4V3.04z M25.6 32L11.2 17.6V11.2H17.6L32 25.6L25.6 32zM12.8 12.8V17.6L25.6 30.4L30.4 25.6L17.6 12.8H12.8z" />
    <glyph glyph-name="flag"
      unicode="&#xE01D;"
      horiz-adv-x="32" d=" M3.153 32H28.833C30.495 32 31.986 30.667 31.986 29.162V2.394C31.986 0.889 31.357 0.009 29.695 0.009C29.695 0.009 27.317 -0.201 25.814 1.161C24.957 1.938 15.995 7.253 15.995 7.253S7.173 1.927 6.327 1.161C4.822 -0.199 2.291 0.011 2.291 0.011C0.629 0.011 0 0.891 0 2.396V29.162C0 30.667 1.491 32 3.153 32z" />
    <glyph glyph-name="fund-pool"
      unicode="&#xE01E;"
      horiz-adv-x="28" d=" M0 26.667H7.111V7.111H0V26.667z M10.667 32H17.778V7.111H10.667V32z M21.333 21.333H28.444V7.111H21.333V21.333z M0 3.556H28.444V0H0V3.556z" />
    <glyph glyph-name="fund_hold"
      unicode="&#xE01F;"
      horiz-adv-x="32" d=" M29.952 15.283L16.29 25.805L16.148 25.619L16.01 25.798L2.084 15.188L0.001 17.953L5.739 22.438V22.449H5.753L15.908 30.385L15.983 30.286L16.069 30.4L26.243 22.45H26.539V22.22L31.977 17.97L29.951 15.284zM16.714 22.45L26.538 14.885V1.651H5.738V14.957L15.572 22.45H16.714zM12.798 14.955L14.67 12.849H11.987V11.249H15.187V9.649H11.987V8.049H15.187V4.849H16.773V8.049H19.987V9.649H16.773V11.249H19.987V12.849H17.304L19.176 14.955L18.192 16.064L15.987 13.584L13.782 16.064L12.798 14.955z" />
    <glyph glyph-name="fund_price"
      unicode="&#xE020;"
      horiz-adv-x="32" d=" M0 19.79V15.018L7.62 19.79L15.24 16.608L32.001 31.111L19.811 30.924L21.335 26.152L15.239 21.379L7.619 24.561L0.001 19.789z M0 10.247L7.62 15.019L15.24 11.837L30.223 24.562V0.702H0.001V10.247z" />
    <glyph glyph-name="fund_self"
      unicode="&#xE021;"
      horiz-adv-x="32" d=" M21.647 0.926V10.353H30.118C30.118 9.882 30.118 9.463 30.118 9.463L21.647 0.927zM18.824 11.294V0C18.815 0 18.8 0 18.79 0C10.937 0 1.883 0 1.883 0V32H30.118C30.118 32 30.118 21.997 30.118 13.176H18.824V11.294zM7.529 12.235H15.058V15.059H7.529V12.235zM24.471 26.353H7.53V23.529H24.471V26.353zM24.471 17.882V20.706H7.53V17.882H24.471z" />
    <glyph glyph-name="garbage"
      unicode="&#xE022;"
      horiz-adv-x="32" d=" M10.182 24.727V29.091C10.182 30.546 10.182 30.546 11.637 30.546H20.364C21.819 30.546 21.819 30.546 21.819 29.091V24.727H23.274V30.545C23.274 31.348 22.622 32 21.819 32H10.183C9.38 32 8.728 31.348 8.728 30.545V24.727H10.183z M1.455 26.182H30.546V24.727H1.455V26.182z M26.182 24.727V2.909C26.182 1.454 26.182 1.454 24.727 1.454H7.272C5.817 1.454 5.817 1.454 5.817 2.909V24.727H4.362V1.454C4.362 0.651 5.014 -0.001 5.817 -0.001H26.181C26.984 -0.001 27.636 0.651 27.636 1.454V24.727H26.181z M11.636 18.909H13.091V7.273H11.636V18.909z M18.909 18.909H20.364V7.273H18.909V18.909z" />
    <glyph glyph-name="lock"
      unicode="&#xE023;"
      horiz-adv-x="32" d=" M25.414 0H6.587C5.028 0 3.765 1.276 3.765 2.848V16.386C3.765 17.96 5.028 19.238 6.587 19.238H25.414C26.973 19.236 28.236 17.96 28.236 16.386V2.852C28.236 1.276 26.973 0 25.414 0zM18.788 11.164C18.788 12.263 17.623 13.154 16.185 13.154H15.816C14.376 13.154 13.211 12.264 13.211 11.164V5.769C13.211 4.67 14.376 3.777 15.814 3.777H16.183C17.623 3.777 18.788 4.669 18.788 5.769V11.164zM15.872 29.146C11.456 29.146 7.996 25.649 7.996 21.067H5.174C5.174 26.563 9.972 32 15.871 32S26.568 26.564 26.568 21.069H23.746C23.746 25.649 20.286 29.146 15.87 29.146z" />
    <glyph glyph-name="lock1"
      unicode="&#xE024;"
      horiz-adv-x="28" d=" M28 20C28 21.104 27.104 22 26 22H2C0.896 22 0 21.104 0 20V2C0 0.896 0.896 0 2 0H26C27.104 0 28 0.896 28 2V20zM24 4H4V18H24V4z M14 28C17.314 28 20 25.314 20 22H24C24 27.522 19.522 32 14 32S4 27.522 4 22H8C8 25.314 10.686 28 14 28z" />
    <glyph glyph-name="lock2"
      unicode="&#xE025;"
      horiz-adv-x="32" d=" M18.5 18H18V24C18 27.308 15.308 30 12 30H8C4.692 30 2 27.308 2 24V18H1.5C0.675 18 0 17.325 0 16.5V1.5C0 0.675 0.675 0 1.5 0H18.5C19.325 0 20 0.675 20 1.5V16.5C20 17.325 19.325 18 18.5 18zM6 24C6 25.103 6.897 26 8 26H12C13.103 26 14 25.103 14 24V18H6V24z" />
    <glyph glyph-name="lock3"
      unicode="&#xE026;"
      horiz-adv-x="28" d=" M28 20C28 21.104 27.104 22 26 22H2C0.896 22 0 21.104 0 20V2C0 0.896 0.896 0 2 0H26C27.104 0 28 0.896 28 2V20z M14 28C17.314 28 20 25.314 20 22H24C24 27.522 19.522 32 14 32S4 27.522 4 22H8C8 25.314 10.686 28 14 28z" />
    <glyph glyph-name="minus"
      unicode="&#xE027;"
      horiz-adv-x="32" d=" M0 19V13C0 12.448 0.448 12 1 12H31C31.552 12 32 12.448 32 13V19C32 19.552 31.552 20 31 20H1C0.448 20 0 19.552 0 19z" />
    <glyph glyph-name="person"
      unicode="&#xE028;"
      horiz-adv-x="32" d=" M30.512 4.725C32.718 3.653 32.117 0 31.515 0H0.651C0.05 0 -0.752 3.865 1.453 4.725C8.267 7.946 14.038 9.116 10.735 11.863C10.058 12.425 8.957 13.296 8.618 14.14C8.282 14.983 8.284 14.958 8.257 15.034C5.45 15.893 4.854 18.828 4.854 20.332S6.054 23.196 7.256 23.411C7.256 24.056 7.866 25.345 7.866 25.772C8.065 28.35 7.896 27.706 9.299 32.001C10.702 31.356 12.481 30.922 13.176 31.196C14.179 31.626 15.08 32.001 15.882 32.001C18.088 32.001 22.095 30.712 23.699 26.417C23.9 25.343 23.9 24.483 23.9 23.409C25.102 23.194 26.103 21.905 26.103 20.618C26.103 19.114 25.703 15.679 22.896 15.034C22.875 14.943 22.848 14.851 22.818 14.762C22.562 13.992 21.986 13.203 21.09 12.243C17.885 8.593 23.696 8.163 30.509 4.725V4.725z" />
    <glyph glyph-name="plus"
      unicode="&#xE029;"
      horiz-adv-x="32" d=" M31 20H20V31C20 31.552 19.552 32 19 32H13C12.448 32 12 31.552 12 31V20H1C0.448 20 0 19.552 0 19V13C0 12.448 0.448 12 1 12H12V1C12 0.448 12.448 0 13 0H19C19.552 0 20 0.448 20 1V12H31C31.552 12 32 12.448 32 13V19C32 19.552 31.552 20 31 20z" />
    <glyph glyph-name="public-opinion"
      unicode="&#xE02A;"
      horiz-adv-x="28" d=" M0 32V0H17.778V10.667H28.445V32H0.001zM12.444 14.222H5.333V16H12.444V14.222zM23.111 19.556H5.333V21.334H23.111V19.556zM23.111 24.889H5.333V26.667H23.111V24.889z M28.444 8.889H19.555V0z" />
    <glyph glyph-name="remove"
      unicode="&#xE02B;"
      horiz-adv-x="32" d=" M15.611 30.832C7.51 30.832 0.944 24.267 0.944 16.165S7.509 1.498 15.611 1.498C23.712 1.498 30.278 8.063 30.278 16.165S23.713 30.832 15.611 30.832zM23.099 10.344L21.214 8.459L15.555 14.115L9.899 8.459L8.014 10.344L13.67 16L8.014 21.656L9.899 23.541L15.555 17.885L21.211 23.541L23.096 21.656L17.44 16L23.099 10.344z" />
    <glyph glyph-name="right-arrow"
      unicode="&#xE02C;"
      horiz-adv-x="32" d=" M17.806 14.614C17.036 13.844 15.786 13.844 15.014 14.614L1.054 28.574C0.284 29.344 0.284 30.594 1.054 31.366V31.366C1.824 32.136 3.074 32.136 3.846 31.366L17.806 17.406C18.576 16.636 18.576 15.386 17.806 14.614V14.614z M17.806 17.406C18.576 16.636 18.576 15.386 17.806 14.614L3.846 0.654C3.076 -0.116 1.826 -0.116 1.054 0.654V0.654C0.284 1.424 0.284 2.674 1.054 3.446L15.014 17.406C15.786 18.178 17.036 18.178 17.806 17.406V17.406z M31.316 14.614C30.546 13.844 29.296 13.844 28.524 14.614L14.564 28.574C13.794 29.344 13.794 30.594 14.564 31.366V31.366C15.334 32.136 16.584 32.136 17.356 31.366L31.316 17.406C32.088 16.636 32.088 15.386 31.316 14.614V14.614z M31.316 17.406C32.086 16.636 32.086 15.386 31.316 14.614L17.356 0.654C16.586 -0.116 15.336 -0.116 14.564 0.654V0.654C13.794 1.424 13.794 2.674 14.564 3.446L28.524 17.406C29.296 18.178 30.546 18.178 31.316 17.406V17.406z" />
    <glyph glyph-name="right"
      unicode="&#xE02D;"
      horiz-adv-x="32" d=" M15.067 8.933C14.719 8.585 14.157 8.585 13.81 8.933L8.045 14.698C7.697 15.046 7.697 15.608 8.045 15.955V15.955C8.393 16.303 8.955 16.303 9.302 15.955L15.066 10.191C15.414 9.843 15.414 9.281 15.067 8.933V8.933z M14.267 8.933C13.919 9.281 13.919 9.843 14.267 10.19L24.477 20.4C24.825 20.748 25.387 20.748 25.734 20.4V20.4C26.082 20.052 26.082 19.49 25.734 19.143L15.524 8.933C15.177 8.586 14.615 8.586 14.267 8.933V8.933z M16.055 32C7.25 32 0.111 24.861 0.111 16.055S7.25 0.11 16.056 0.11S32 7.25 32 16.055S24.861 32 16.055 32zM16.055 1.994C8.289 1.994 1.994 8.29 1.994 16.055S8.29 30.117 16.055 30.117S30.116 23.821 30.116 16.056S23.821 1.994 16.055 1.994z" />
    <glyph glyph-name="search"
      unicode="&#xE02E;"
      horiz-adv-x="32" d=" M31.514 0.486C30.866 -0.162 29.815 -0.162 29.167 0.486L22.829 6.824C20.424 4.927 17.427 3.748 14.126 3.748C6.325 3.748 0 10.073 0 17.874S6.325 32 14.126 32S28.252 25.675 28.252 17.874C28.252 14.572 27.073 11.576 25.174 9.171L31.512 2.833C32.162 2.185 32.162 1.134 31.514 0.486zM14.126 28.233C8.404 28.233 3.767 23.594 3.767 17.874C3.767 12.152 8.404 7.515 14.126 7.515C16.657 7.515 18.946 8.459 20.746 9.967C20.806 10.282 20.929 10.585 21.172 10.828S21.72 11.191 22.033 11.254C23.542 13.055 24.485 15.343 24.485 17.874C24.485 23.594 19.848 28.233 14.126 28.233z" />
    <glyph glyph-name="spinner11"
      unicode="&#xE02F;"
      horiz-adv-x="32" d=" M32 20H20L24.485 24.485C22.218 26.751 19.205 28 16 28S9.781 26.752 7.515 24.485C5.249 22.218 4 19.205 4 16S5.248 9.781 7.515 7.515C9.782 5.249 12.795 4 16 4S22.219 5.248 24.485 7.515C24.674 7.704 24.856 7.899 25.031 8.098L28.041 5.464C25.108 2.115 20.802 0 16 0C7.163 0 0 7.163 0 16S7.163 32 16 32C20.418 32 24.418 30.209 27.313 27.313L32 32V20z" />
    <glyph glyph-name="star-empty"
      unicode="&#xE030;"
      horiz-adv-x="32" d=" M32 19.592L20.944 21.199L16 31.217L11.056 21.199L0 19.592L8 11.794L6.111 0.783L16 5.982L25.889 0.783L24 11.794L32 19.592zM16 8.453L9.017 4.782L10.351 12.558L4.701 18.065L12.509 19.199L16.001 26.274L19.493 19.199L27.3 18.065L21.65 12.558L22.984 4.782L16.001 8.453z" />
    <glyph glyph-name="star-full"
      unicode="&#xE031;"
      horiz-adv-x="32" d=" M32 19.592L20.944 21.199L16 31.217L11.056 21.199L0 19.592L8 11.794L6.111 0.783L16 5.982L25.889 0.783L24 11.794L32 19.592z" />
    <glyph glyph-name="star-half"
      unicode="&#xE032;"
      horiz-adv-x="32" d=" M32 19.592L20.944 21.199L16 31.217L11.056 21.199L0 19.592L8 11.794L6.111 0.783L16 5.982L25.889 0.783L24 11.794L32 19.592zM16 8.453L15.971 8.438L16 26.275L19.492 19.2L27.299 18.066L21.649 12.559L22.983 4.783L16 8.454z" />
    <glyph glyph-name="star"
      unicode="&#xE033;"
      horiz-adv-x="32" d=" M21.534 2.603C17.694 4.888 13.897 4.82 10.142 2.4S5.003 0.947 5.988 5.306C6.974 9.662 5.734 13.255 2.274 16.077C-1.188 18.902 -0.696 20.519 3.755 20.926C8.203 21.333 11.234 23.62 12.849 27.787C14.464 31.951 16.154 31.983 17.918 27.877S22.793 21.596 27.253 21.345S32.264 19.498 28.906 16.551C25.548 13.607 24.439 9.974 25.578 5.656C26.719 1.336 25.371 0.318 21.533 2.603z" />
    <glyph glyph-name="unlock"
      unicode="&#xE034;"
      horiz-adv-x="28" d=" M28 20C28 21.104 27.104 22 26 22H2C0.896 22 0 21.104 0 20V2C0 0.896 0.896 0 2 0H26C27.104 0 28 0.896 28 2V20zM24 4H4V18H24V4z M19.376 24.618L22.312 27.554C20.518 30.234 17.466 32 14 32C8.478 32 4 27.522 4 22H8C8 25.314 10.686 28 14 28C16.37 28 18.4 26.614 19.376 24.618z" />
    <glyph glyph-name="unlocked"
      unicode="&#xE035;"
      horiz-adv-x="32" d=" M24 30C27.308 30 30 27.308 30 24V18H26V24C26 25.103 25.103 26 24 26H20C18.897 26 18 25.103 18 24V18H18.5C19.325 18 20 17.325 20 16.5V1.5C20 0.675 19.325 0 18.5 0H1.5C0.675 0 0 0.675 0 1.5V16.5C0 17.325 0.675 18 1.5 18H14V24C14 27.308 16.692 30 20 30H24z" />
    <glyph glyph-name="up3"
      unicode="&#xE036;"
      horiz-adv-x="32" d=" M17.149 22.16C17.773 21.48 17.773 20.376 17.149 19.696L8.082 9.845C7.458 9.162 6.442 9.162 5.815 9.845V9.845C5.188 10.522 5.188 11.629 5.815 12.306L14.882 22.159C15.509 22.836 16.519 22.836 17.149 22.159V22.159z M14.883 22.16C15.507 22.837 16.52 22.837 17.15 22.16L26.211 12.307C26.835 11.63 26.835 10.523 26.211 9.846V9.846C25.587 9.163 24.568 9.163 23.942 9.846L14.883 19.697C14.256 20.377 14.256 21.478 14.883 22.161V22.161z" />
    <glyph glyph-name="up_arrow"
      unicode="&#xE037;"
      horiz-adv-x="32" d=" M0 8L16 24L32 8z" />
    <glyph glyph-name="upload"
      unicode="&#xE038;"
      horiz-adv-x="32" d=" M29.091 29.091H2.909C2.106 29.091 1.454 29.743 1.454 30.546S2.106 32.001 2.909 32.001H29.091C29.895 32.001 30.546 31.349 30.546 30.546S29.896 29.091 29.091 29.091z M16 0C15.197 0 14.545 0.65 14.545 1.455V23.273C14.545 24.076 15.197 24.728 16 24.728C16.804 24.728 17.455 24.076 17.455 23.273V1.455C17.455 0.651 16.805 0 16 0z M2.092 9.908C1.72 9.908 1.347 10.051 1.064 10.334C0.495 10.903 0.495 11.822 1.064 12.391L15.017 26.346C15.586 26.915 16.506 26.915 17.075 26.346C17.642 25.777 17.642 24.858 17.075 24.289L3.122 10.334C2.837 10.05 2.465 9.908 2.092 9.908z M29.136 9.908C28.764 9.908 28.391 10.051 28.108 10.334L14.155 24.289C13.586 24.858 13.586 25.777 14.155 26.346S15.643 26.915 16.212 26.346L30.165 12.391C30.734 11.822 30.734 10.903 30.165 10.334C29.881 10.05 29.509 9.908 29.137 9.908z" />
    <glyph glyph-name="warning"
      unicode="&#xE039;"
      horiz-adv-x="32" d=" M16 0C7.164 0 0 7.164 0 16S7.164 32 16 32S32 24.836 32 16S24.836 0 16 0zM16 29.867C8.342 29.867 2.133 23.658 2.133 16S8.342 2.133 16 2.133S29.867 8.342 29.867 16S23.658 29.867 16 29.867zM16 8C15.116 8 14.4 8.716 14.4 9.6S15.116 11.2 16 11.2S17.6 10.484 17.6 9.6C17.6 8.716 16.884 8 16 8zM16 13.867C15.411 13.867 14.933 14.345 14.933 14.934V23.467C14.933 24.056 15.411 24.534 16 24.534S17.067 24.056 17.067 23.467V14.934C17.067 14.345 16.589 13.867 16 13.867z" />
    <glyph glyph-name="warning2"
      unicode="&#xE03A;"
      horiz-adv-x="32" d=" M16 0C7.163 0 0 7.163 0 16S7.163 32 16 32S32 24.837 32 16S24.837 0 16 0zM15.88 7.371C16.897 7.371 17.722 8.196 17.722 9.213S16.897 11.055 15.88 11.055S14.038 10.23 14.038 9.213S14.863 7.371 15.88 7.371zM18.426 22.796C18.426 24.197 17.29 25.333 15.889 25.333S13.352 24.197 13.352 22.796C13.352 22.715 13.368 22.64 13.376 22.561H13.34L15.427 13.026H15.446C15.492 12.822 15.668 12.667 15.89 12.667S16.288 12.823 16.334 13.026H16.348L18.369 22.265C18.371 22.277 18.374 22.288 18.377 22.3L18.434 22.561H18.403C18.409 22.639 18.426 22.715 18.426 22.796z" />
  </font>
</defs>
</svg>
